<?xml version="1.0" encoding="UTF-8"?>
<svg version="1.1" xmlns="http://www.w3.org/2000/svg" width="2000" height="1489">
<path d="M0 0 C660 0 1320 0 2000 0 C2000 491.37 2000 982.74 2000 1489 C1340 1489 680 1489 0 1489 C0 997.63 0 506.26 0 0 Z " fill="#FEFEFE" transform="translate(0,0)"/>
<path d="M0 0 C5.31569348 4.17401923 10.47128899 8.542605 15.6015625 12.94140625 C18.42725889 15.36085511 21.29792479 17.71948667 24.1875 20.0625 C29.05129025 24.02008188 33.80881231 28.09042446 38.55834961 32.18334961 C42.08298919 35.21445289 45.64039882 38.19485316 49.25 41.125 C54.65076172 45.51212902 59.924677 50.03723412 65.19921875 54.57421875 C72.46031003 60.81927321 79.75553429 67.0213115 87.1875 73.0625 C92.60570579 77.47413055 97.9027085 82.01823642 103.19921875 86.57421875 C110.46031003 92.81927321 117.75553429 99.0213115 125.1875 105.0625 C130.60570579 109.47413055 135.9027085 114.01823642 141.19921875 118.57421875 C148.46031003 124.81927321 155.75553429 131.0213115 163.1875 137.0625 C168.60570579 141.47413055 173.9027085 146.01823642 179.19921875 150.57421875 C186.46031003 156.81927321 193.75553429 163.0213115 201.1875 169.0625 C206.60570579 173.47413055 211.9027085 178.01823642 217.19921875 182.57421875 C224.46031003 188.81927321 231.75553429 195.0213115 239.1875 201.0625 C244.60570579 205.47413055 249.9027085 210.01823642 255.19921875 214.57421875 C262.46031003 220.81927321 269.75553429 227.0213115 277.1875 233.0625 C282.60570579 237.47413055 287.9027085 242.01823642 293.19921875 246.57421875 C300.46031003 252.81927321 307.75553429 259.0213115 315.1875 265.0625 C319.9978778 268.97922271 324.71950509 272.98996972 329.41333008 277.04492188 C332.28537445 279.52402388 335.16859601 281.98153208 338.109375 284.37890625 C362.75492844 304.55177527 379.15938335 331.16000715 386.19760835 362.21959752 C386.53671987 363.69626665 386.89353352 365.16917052 387.27995074 366.63417226 C389.31340499 375.12840923 389.03444955 383.71927552 389.01742554 392.39274597 C389.02116558 394.20147542 389.02576852 396.01020325 389.03115618 397.81892854 C389.04335774 402.77268539 389.04312907 407.72637456 389.04076743 412.680143 C389.04035854 418.02932623 389.05140526 423.37848797 389.06088257 428.72766113 C389.07747792 439.20160977 389.08299145 449.67553589 389.08410732 460.14949658 C389.08505849 468.66553284 389.0891722 477.18156168 389.09550858 485.6975956 C389.11311695 509.8557079 389.12234807 534.01380245 389.12084763 558.17192122 C389.12072776 560.12446548 389.12072776 560.12446548 389.12060547 562.11645508 C389.12052371 563.41974529 389.12044195 564.7230355 389.12035771 566.06581936 C389.11954491 587.18445598 389.138682 608.30302127 389.1668822 629.42163726 C389.19562654 651.11939946 389.20942164 672.81712689 389.20769465 694.51490861 C389.20703129 706.69120028 389.21250007 718.86741715 389.23405075 731.04369164 C389.25228291 741.41121084 389.25659312 751.77862134 389.2430319 762.14614966 C389.2365126 767.43207408 389.23634765 772.71779008 389.2537384 778.00369453 C389.2695199 782.85046528 389.26655379 787.69686322 389.24917014 792.54362515 C389.24611141 794.2892091 389.24968974 796.03482123 389.26089029 797.78037193 C389.38588976 818.65745044 384.0763286 836.80807074 369.75 852.625 C369.11191406 853.33269531 368.47382812 854.04039062 367.81640625 854.76953125 C356.30182557 866.88648436 338.114409 877.96832559 321.00220476 878.7506165 C319.99526798 878.750908 318.9883312 878.7511995 317.95088118 878.75149983 C316.78206 878.75425958 315.61323882 878.75701932 314.40899882 878.75986269 C312.4852584 878.75677971 312.4852584 878.75677971 310.52265453 878.75363445 C309.13955632 878.75498096 307.75645847 878.75676478 306.37336132 878.75894669 C302.55638713 878.76368671 298.73943673 878.76217178 294.92246135 878.75966892 C290.77599203 878.75803917 286.62952787 878.76217389 282.48306018 878.76557809 C275.21034857 878.77073887 267.93764361 878.77214812 260.66493034 878.77112198 C249.85018563 878.76959979 239.03544831 878.77375272 228.22070504 878.7789966 C207.78370582 878.78867897 187.34670911 878.79148117 166.90970787 878.79205366 C151.13043095 878.79251279 135.35115503 878.79456898 119.57187843 878.79775429 C115.03367212 878.7986518 110.4954658 878.79954161 105.95725948 878.80042917 C104.82912374 878.80065021 103.700988 878.80087126 102.53866634 878.80109901 C70.79655599 878.80725515 39.05444599 878.81119937 7.31233501 878.81075573 C6.11503289 878.81074015 4.91773077 878.81072457 3.68414676 878.81070852 C-2.38460377 878.81062541 -8.4533543 878.81052637 -14.52210484 878.81042381 C-15.72743175 878.81040387 -16.93275866 878.81038392 -18.17461063 878.81036337 C-20.61207623 878.81032294 -23.04954183 878.81028114 -25.48700742 878.81023798 C-63.41769302 878.8096251 -101.34836969 878.81713332 -139.27905273 878.83081055 C-181.87036379 878.84616191 -224.46166898 878.85477735 -267.05298299 878.85384732 C-271.59213237 878.85377269 -276.13128175 878.85372399 -280.67043114 878.85369301 C-282.34697642 878.85367553 -282.34697642 878.85367553 -284.0573913 878.85365769 C-302.06547781 878.85362688 -320.07355659 878.86002021 -338.08164081 878.86862527 C-356.17140272 878.87709075 -374.26115327 878.87810039 -392.35091607 878.87151595 C-403.10493323 878.86781294 -413.85891596 878.86967501 -424.61292949 878.87945829 C-431.79128928 878.88543827 -438.96962399 878.884185 -446.14798261 878.87698779 C-450.24130392 878.87308947 -454.33455836 878.87237876 -458.42787508 878.88044515 C-462.15139694 878.88771874 -465.87479618 878.8857937 -469.59831256 878.87652128 C-471.56894178 878.87398695 -473.53957616 878.88126817 -475.51019207 878.88894406 C-481.79934072 878.86354428 -487.23513162 878.48376934 -493.25 876.625 C-494.42820312 876.31949219 -495.60640625 876.01398437 -496.8203125 875.69921875 C-506.5837388 872.64119798 -515.65123915 867.44865956 -523.25 860.625 C-524.07113281 859.89667969 -524.89226563 859.16835937 -525.73828125 858.41796875 C-532.31644486 852.2390867 -536.94248174 845.5285268 -541.25 837.625 C-541.745 836.73039062 -542.24 835.83578125 -542.75 834.9140625 C-549.42963214 821.67407737 -549.69345747 807.00273518 -549.63095093 792.51104736 C-549.63441591 790.73782526 -549.63918607 788.96460532 -549.64513266 787.1913898 C-549.6575574 782.36341516 -549.65151144 777.53562037 -549.64217401 772.70764542 C-549.6353484 767.48321619 -549.64588219 762.25881654 -549.65411377 757.03439331 C-549.66741713 746.81624847 -549.66458821 736.59816994 -549.65587585 726.38002256 C-549.64908482 718.06916673 -549.64818871 709.75832942 -549.6514473 701.44747162 C-549.651907 700.26200858 -549.65236669 699.07654555 -549.65284032 697.85515939 C-549.65379956 695.44642855 -549.6547722 693.03769772 -549.6557581 690.6289669 C-549.66430243 668.06837553 -549.65449366 645.50782079 -549.638357 622.94723544 C-549.62496165 603.62170631 -549.62727733 584.29623127 -549.64111328 564.97070312 C-549.657198 542.49386479 -549.66347125 520.01705854 -549.65427649 497.54021525 C-549.65332091 495.13940732 -549.6523778 492.73859938 -549.6514473 490.33779144 C-549.65098447 489.15675807 -549.65052164 487.9757247 -549.65004479 486.75890245 C-549.64746305 478.46752834 -549.65180839 470.17617471 -549.65888596 461.88480377 C-549.66733366 451.76644535 -549.66495274 441.64815668 -549.64904372 431.52980617 C-549.64120374 426.37489998 -549.63799568 421.22010973 -549.64799118 416.06520462 C-549.65702846 411.33256774 -549.651859 406.60015262 -549.63605852 401.86753544 C-549.6327484 400.16915178 -549.63431799 398.47074879 -549.64168589 396.77237788 C-549.76522524 365.88981848 -541.98001086 335.63485856 -523.25 310.625 C-522.59902344 309.75230469 -521.94804688 308.87960937 -521.27734375 307.98046875 C-512.52233984 296.80351983 -502.19360768 286.64885688 -491.05859375 277.86328125 C-487.71531747 275.19889 -484.48388115 272.42025577 -481.25 269.625 C-476.26131443 265.32445543 -471.20775972 261.12012259 -466.09375 256.96875 C-462.77313514 254.23197951 -459.50953218 251.4339705 -456.25 248.625 C-452.12531796 245.07046839 -447.97792288 241.55707857 -443.75 238.125 C-438.34923828 233.73787098 -433.075323 229.21276588 -427.80078125 224.67578125 C-420.53968997 218.43072679 -413.24446571 212.2286885 -405.8125 206.1875 C-400.39429421 201.77586945 -395.0972915 197.23176358 -389.80078125 192.67578125 C-382.53968997 186.43072679 -375.24446571 180.2286885 -367.8125 174.1875 C-362.39429421 169.77586945 -357.0972915 165.23176358 -351.80078125 160.67578125 C-344.53968997 154.43072679 -337.24446571 148.2286885 -329.8125 142.1875 C-324.39429421 137.77586945 -319.0972915 133.23176358 -313.80078125 128.67578125 C-306.53968997 122.43072679 -299.24446571 116.2286885 -291.8125 110.1875 C-286.39429421 105.77586945 -281.0972915 101.23176358 -275.80078125 96.67578125 C-268.53968997 90.43072679 -261.24446571 84.2286885 -253.8125 78.1875 C-248.39429421 73.77586945 -243.0972915 69.23176358 -237.80078125 64.67578125 C-230.53968997 58.43072679 -223.24446571 52.2286885 -215.8125 46.1875 C-210.39429421 41.77586945 -205.0972915 37.23176358 -199.80078125 32.67578125 C-190.72104058 24.86655909 -181.57112118 17.14530593 -172.25 9.625 C-171.71262207 9.18655762 -171.17524414 8.74811523 -170.62158203 8.29638672 C-162.51311585 1.69163039 -154.32223018 -4.13248861 -145.25 -9.375 C-143.57550781 -10.38240234 -143.57550781 -10.38240234 -141.8671875 -11.41015625 C-138.15821652 -13.51874008 -134.34032671 -14.99175827 -130.3125 -16.375 C-129.5817627 -16.62918701 -128.85102539 -16.88337402 -128.09814453 -17.14526367 C-85.98743676 -31.45494696 -36.4061604 -26.59356248 0 0 Z " fill="#000000" transform="translate(1076.25,212.375)"/>
</svg>
